<svg xmlns="http://www.w3.org/2000/svg" viewBox="0 0 370 512">
    <path d="m 341.59508,88.978657 h -52.2652 V 0.35505778 H 272.28689 V 88.978657 h -52.26518 c -4.5448,0 -8.5215,3.97672 -8.5215,8.521496 V 414.4999 c 0,4.5448 3.9767,8.5215 8.5215,8.5215 h 52.26518 v 88.62354 h 17.04299 V 423.0214 h 52.2652 c 4.5448,0 8.52149,-3.9767 8.52149,-8.5215 V 97.500153 c 0,-4.544776 -3.97669,-8.521496 -8.52149,-8.521496 z" />
    <path d="M 149.51546,146.93241 H 96.141938 V 56.429451 H 78.737529 V 146.93241 H 25.364015 c -4.641175,0 -8.702205,4.061 -8.702205,8.70215 v 200.73085 c 0,4.64121 4.06103,8.70224 8.702205,8.70224 h 53.373514 v 90.5029 h 17.404409 v -90.5029 h 53.373522 c 4.64117,0 8.7022,-4.06103 8.7022,-8.70224 V 155.63456 c 0,-4.64115 -4.06103,-8.70215 -8.7022,-8.70215 z m -8.7022,200.73079 H 33.486071 V 164.33677 H 140.23311 V 347.6632 Z" />
</svg>
