<svg xmlns="http://www.w3.org/2000/svg" viewBox="0 0 390.4 512">
<path d="M320.7,161.6l-98-98V30c0-15.2-12.3-27.5-27.5-27.5c-15.2,0-27.5,12.3-27.5,27.5v33.5l-97.9,98.1l-0.1,0.1
	c-33.5,33.5-52,78.1-51.9,125.5c0,47.4,18.5,92,52,125.5c26.9,26.9,61,44.1,97.9,49.8V482c0,15.2,12.3,27.5,27.5,27.5
	c15.2,0,27.5-12.3,27.5-27.5v-19.5c37-5.7,71.1-22.9,98.1-49.9C390,343.4,389.9,230.8,320.7,161.6z M108.5,373.9
	c-23.2-23.2-36-54-36-86.8c0-32.8,12.7-63.6,35.9-86.8l59.3-59.4v265.7C145.5,401.7,125.1,390.4,108.5,373.9z M282.1,373.9
	c-16.6,16.6-37,27.8-59.3,32.9V141.1l59.3,59.3c23.2,23.2,36,54,36,86.8C318,319.9,305.2,350.7,282.1,373.9z"/>
</svg>
