<?xml version="1.0" encoding="iso-8859-1"?>
<!-- Generator: Adobe Illustrator 18.0.0, SVG Export Plug-In . SVG Version: 6.00 Build 0)  -->
<!DOCTYPE svg PUBLIC "-//W3C//DTD SVG 1.1//EN" "http://www.w3.org/Graphics/SVG/1.1/DTD/svg11.dtd">
<svg version="1.1" id="Capa_1" xmlns="http://www.w3.org/2000/svg" xmlns:xlink="http://www.w3.org/1999/xlink" x="0px" y="0px"
	 viewBox="0 0 297.322 297.322" style="enable-background:new 0 0 297.322 297.322;" xml:space="preserve">
<path d="M242.894,257.322h-3.955L109.054,143.746L223.019,40.643h1.875c11.046,0,20-8.954,20-20s-8.954-20-20-20h-46
	c-11.046,0-20,8.954-20,20c0,6.771,3.373,12.745,8.522,16.363l-69.989,63.318V40h3c11.046,0,20-8.954,20-20s-8.954-20-20-20h-46
	c-11.046,0-20,8.954-20,20s8.954,20,20,20h3v217h-3c-11.046,0-20,8.954-20,20s8.954,20,20,20h46c11.046,0,20-8.954,20-20
	s-8.954-20-20-20h-3v-70.285l86.364,75.52c-4.219,3.667-6.898,9.059-6.898,15.087c0,11.046,8.954,20,20,20h46
	c11.046,0,20-8.954,20-20S253.94,257.322,242.894,257.322z"/>
<g>
</g>
<g>
</g>
<g>
</g>
<g>
</g>
<g>
</g>
<g>
</g>
<g>
</g>
<g>
</g>
<g>
</g>
<g>
</g>
<g>
</g>
<g>
</g>
<g>
</g>
<g>
</g>
<g>
</g>
</svg>
