<?xml version="1.0" encoding="iso-8859-1"?>
<!-- Generator: Adobe Illustrator 18.0.0, SVG Export Plug-In . SVG Version: 6.00 Build 0)  -->
<!DOCTYPE svg PUBLIC "-//W3C//DTD SVG 1.1//EN" "http://www.w3.org/Graphics/SVG/1.1/DTD/svg11.dtd">
<svg version="1.1" id="Capa_1" xmlns="http://www.w3.org/2000/svg" xmlns:xlink="http://www.w3.org/1999/xlink" x="0px" y="0px"
	 viewBox="0 0 292.025 292.025" style="enable-background:new 0 0 292.025 292.025;" xml:space="preserve">
<path d="M223.063,45.673C203.064,16.221,175.7,0,146.013,0C116.324,0,88.96,16.221,68.961,45.673
	c-18.39,27.081-28.517,62.715-28.517,100.339c0,37.625,10.127,73.26,28.517,100.34c19.999,29.453,47.363,45.673,77.052,45.673
	c29.688,0,57.052-16.22,77.051-45.673c18.39-27.08,28.517-62.715,28.517-100.34C251.58,108.388,241.453,72.754,223.063,45.673z
	 M146.013,40c31.326,0,58.363,37.718,64.337,86.012H81.675C87.649,77.718,114.686,40,146.013,40z M146.013,252.025
	c-31.327,0-58.364-37.718-64.337-86.013h128.674C204.376,214.306,177.339,252.025,146.013,252.025z"/>
<g>
</g>
<g>
</g>
<g>
</g>
<g>
</g>
<g>
</g>
<g>
</g>
<g>
</g>
<g>
</g>
<g>
</g>
<g>
</g>
<g>
</g>
<g>
</g>
<g>
</g>
<g>
</g>
<g>
</g>
</svg>
