<?xml version="1.0" encoding="iso-8859-1"?>
<!-- Generator: Adobe Illustrator 18.0.0, SVG Export Plug-In . SVG Version: 6.00 Build 0)  -->
<!DOCTYPE svg PUBLIC "-//W3C//DTD SVG 1.1//EN" "http://www.w3.org/Graphics/SVG/1.1/DTD/svg11.dtd">
<svg version="1.1" id="Capa_1" xmlns="http://www.w3.org/2000/svg" xmlns:xlink="http://www.w3.org/1999/xlink" x="0px" y="0px"
	 viewBox="0 0 294 294" style="enable-background:new 0 0 294 294;" xml:space="preserve">
<path d="M227.744,0c-11.046,0-20,8.954-20,20v3H66.256c-11.046,0-20,8.954-20,20s8.954,20,20,20h6.657v191h-3
	c-11.046,0-20,8.954-20,20s8.954,20,20,20h46c11.046,0,20-8.954,20-20s-8.954-20-20-20h-3V63h94.831v3.001c0,11.046,8.954,20,20,20
	c11.046,0,20-8.954,20-20V20C247.744,8.954,238.79,0,227.744,0z"/>
<g>
</g>
<g>
</g>
<g>
</g>
<g>
</g>
<g>
</g>
<g>
</g>
<g>
</g>
<g>
</g>
<g>
</g>
<g>
</g>
<g>
</g>
<g>
</g>
<g>
</g>
<g>
</g>
<g>
</g>
</svg>
