<?xml version="1.0" encoding="iso-8859-1"?>
<!-- Generator: Adobe Illustrator 18.0.0, SVG Export Plug-In . SVG Version: 6.00 Build 0)  -->
<!DOCTYPE svg PUBLIC "-//W3C//DTD SVG 1.1//EN" "http://www.w3.org/Graphics/SVG/1.1/DTD/svg11.dtd">
<svg version="1.1" id="Capa_1" xmlns="http://www.w3.org/2000/svg" xmlns:xlink="http://www.w3.org/1999/xlink" x="0px" y="0px"
	 viewBox="0 0 292.216 292.216" style="enable-background:new 0 0 292.216 292.216;" xml:space="preserve">
<path d="M216.231,206.215c-11.046,0-20,8.954-20,20v3h-78.667L227.756,53.631c3.868-6.163,4.083-13.942,0.562-20.31
	C224.796,26.953,218.093,23,210.816,23H95.985v-3c0-11.046-8.954-20-20-20s-20,8.954-20,20v46.001c0,11.046,8.954,20,20,20
	s20-8.954,20-20V63h78.667L64.46,238.584c-3.868,6.163-4.083,13.942-0.562,20.31c3.522,6.368,10.225,10.321,17.502,10.321h114.831
	v3.001c0,11.046,8.954,20,20,20s20-8.954,20-20v-46.001C236.231,215.169,227.277,206.215,216.231,206.215z"/>
<g>
</g>
<g>
</g>
<g>
</g>
<g>
</g>
<g>
</g>
<g>
</g>
<g>
</g>
<g>
</g>
<g>
</g>
<g>
</g>
<g>
</g>
<g>
</g>
<g>
</g>
<g>
</g>
<g>
</g>
</svg>
