<?xml version="1.0" encoding="utf-8"?>
<!-- Generator: Adobe Illustrator 16.0.0, SVG Export Plug-In . SVG Version: 6.00 Build 0)  -->
<!DOCTYPE svg PUBLIC "-//W3C//DTD SVG 1.1//EN" "http://www.w3.org/Graphics/SVG/1.1/DTD/svg11.dtd">
<svg version="1.1" id="object" xmlns="http://www.w3.org/2000/svg" xmlns:xlink="http://www.w3.org/1999/xlink" x="0px" y="0px"
	 width="353.1px" height="406.6px" viewBox="0 0 353.1 406.6" enable-background="new 0 0 353.1 406.6" xml:space="preserve">
<g>
	<g id="XMLID_1_">
		<linearGradient id="XMLID_3_" gradientUnits="userSpaceOnUse" x1="176.9927" y1="140.6875" x2="176.9927" y2="387.7056">
			<stop  offset="0" style="stop-color:#FFF4E7"/>
			<stop  offset="0.2104" style="stop-color:#FAE6E6"/>
			<stop  offset="1" style="stop-color:#E9B4E4"/>
		</linearGradient>
		<polygon id="XMLID_78_" fill="url(#XMLID_3_)" points="228,140.7 186.4,140.7 124.7,140.8 47,387.7 186.4,387.7 307,387.7 		"/>
		<linearGradient id="XMLID_4_" gradientUnits="userSpaceOnUse" x1="95.0742" y1="113.166" x2="258.9102" y2="113.166">
			<stop  offset="0" style="stop-color:#46B8FB"/>
			<stop  offset="0.535" style="stop-color:#77FFFC"/>
			<stop  offset="1" style="stop-color:#B5FFFD"/>
		</linearGradient>
		<circle id="XMLID_77_" fill="url(#XMLID_4_)" cx="177" cy="113.2" r="81.9"/>
		<linearGradient id="XMLID_5_" gradientUnits="userSpaceOnUse" x1="0" y1="154.125" x2="353.082" y2="154.125">
			<stop  offset="0" style="stop-color:#6400C4"/>
			<stop  offset="1" style="stop-color:#BB73FF"/>
		</linearGradient>
		<path id="XMLID_76_" fill="url(#XMLID_5_)" d="M258.7,113.2c0,0-27.2,16.8-82.4,16.8c-55.1,0-81.7-16.8-81.7-16.8S0,140.4,0,159.3
			c0,18.9,106.2,35.8,176.4,35.8s176.7-16.9,176.7-35.8C353.1,140.4,258.7,113.2,258.7,113.2z"/>
		<g id="XMLID_48_">
			<linearGradient id="XMLID_6_" gradientUnits="userSpaceOnUse" x1="172.2666" y1="20.1133" x2="175.7896" y2="20.1133">
				<stop  offset="0" style="stop-color:#4600A3"/>
				<stop  offset="1" style="stop-color:#6400C4"/>
			</linearGradient>
			<rect id="XMLID_228_" x="172.3" y="8.4" fill="url(#XMLID_6_)" width="3.5" height="23.5"/>
		</g>
		<linearGradient id="XMLID_15_" gradientUnits="userSpaceOnUse" x1="165.8086" y1="8.6777" x2="183.1631" y2="8.6777">
			<stop  offset="0" style="stop-color:#6400C4"/>
			<stop  offset="1" style="stop-color:#BB73FF"/>
		</linearGradient>
		<circle id="XMLID_47_" fill="url(#XMLID_15_)" cx="174.5" cy="8.7" r="8.7"/>
		<linearGradient id="XMLID_16_" gradientUnits="userSpaceOnUse" x1="176.9927" y1="368.4443" x2="176.9927" y2="406.6436">
			<stop  offset="0" style="stop-color:#FFF4E7"/>
			<stop  offset="0.2104" style="stop-color:#FAE6E6"/>
			<stop  offset="1" style="stop-color:#E9B4E4"/>
		</linearGradient>
		<ellipse id="XMLID_45_" fill="url(#XMLID_16_)" cx="177" cy="387.5" rx="130" ry="19.1"/>
		<g id="XMLID_36_">
			<linearGradient id="XMLID_17_" gradientUnits="userSpaceOnUse" x1="131.7495" y1="277.9028" x2="232.4199" y2="277.9028">
				<stop  offset="0" style="stop-color:#46B8FB"/>
				<stop  offset="0.535" style="stop-color:#77FFFC"/>
				<stop  offset="1" style="stop-color:#B5FFFD"/>
			</linearGradient>
			<path id="XMLID_43_" fill="url(#XMLID_17_)" d="M231.1,286.4l-50.9,38.3c-1.5,1.1-3.5,0.8-4.6-0.7l-43.1-57.4
				c-1.1-1.5-0.8-3.5,0.7-4.6l41.8-31.4l21,3.6l35.8,47.7C232.9,283.2,232.6,285.3,231.1,286.4z"/>
			<linearGradient id="XMLID_19_" gradientUnits="userSpaceOnUse" x1="174.917" y1="236.3604" x2="195.9512" y2="236.3604">
				<stop  offset="0.4264" style="stop-color:#4C47CC"/>
				<stop  offset="0.7654" style="stop-color:#4E61CD"/>
				<stop  offset="1" style="stop-color:#617BFF"/>
			</linearGradient>
			<path id="XMLID_42_" fill="url(#XMLID_19_)" d="M174.9,230.5l21,3.6l-9.1,7.5c-1.2,1-3,0.8-3.9-0.5L174.9,230.5z"/>
			<g id="XMLID_39_">
				<linearGradient id="XMLID_20_" gradientUnits="userSpaceOnUse" x1="159.1797" y1="272.9731" x2="167.6401" y2="272.9731">
					<stop  offset="0" style="stop-color:#4600A3"/>
					<stop  offset="1" style="stop-color:#6400C4"/>
				</linearGradient>
				<circle id="XMLID_41_" fill="url(#XMLID_20_)" cx="163.4" cy="273" r="4.2"/>
				<linearGradient id="XMLID_21_" gradientUnits="userSpaceOnUse" x1="182.2256" y1="255.6572" x2="190.6865" y2="255.6572">
					<stop  offset="0" style="stop-color:#4600A3"/>
					<stop  offset="1" style="stop-color:#6400C4"/>
				</linearGradient>
				<circle id="XMLID_40_" fill="url(#XMLID_21_)" cx="186.5" cy="255.7" r="4.2"/>
			</g>
			<linearGradient id="XMLID_22_" gradientUnits="userSpaceOnUse" x1="178.2695" y1="278.6382" x2="192.7422" y2="278.6382">
				<stop  offset="0.4264" style="stop-color:#4C47CC"/>
				<stop  offset="0.7654" style="stop-color:#4E61CD"/>
				<stop  offset="1" style="stop-color:#617BFF"/>
			</linearGradient>
			<path id="XMLID_38_" fill="url(#XMLID_22_)" d="M189.3,275.8c3.4,4.5,4.4,9.5,2.3,11s-6.6-0.8-10-5.3c-3.4-4.5-4.4-9.5-2.3-11
				S185.9,271.3,189.3,275.8z"/>
		</g>
		<linearGradient id="XMLID_23_" gradientUnits="userSpaceOnUse" x1="250.6348" y1="234.4614" x2="285.7168" y2="234.4614">
			<stop  offset="0" style="stop-color:#46B8FB"/>
			<stop  offset="0.535" style="stop-color:#77FFFC"/>
			<stop  offset="1" style="stop-color:#B5FFFD"/>
		</linearGradient>
		<path id="XMLID_35_" fill="url(#XMLID_23_)" d="M271.1,254.5l-19.4,2.1c-1,0.1-1.4-1.2-0.6-1.7c3.6-2.4,8.8-7.2,12.4-15.9
			c3.7-8.9,2.9-14.2,2.5-16c-0.1-0.4,0.1-0.8,0.5-1l17.6-9.6c0.6-0.3,1.3,0,1.4,0.7c0.5,3.1,1.1,11.4-2.7,21.4
			c-4.1,10.6-9.7,18.1-10.9,19.7C271.6,254.4,271.3,254.5,271.1,254.5z"/>
		<linearGradient id="XMLID_24_" gradientUnits="userSpaceOnUse" x1="48.6616" y1="343.0254" x2="89.1641" y2="343.0254">
			<stop  offset="0" style="stop-color:#46B8FB"/>
			<stop  offset="0.535" style="stop-color:#77FFFC"/>
			<stop  offset="1" style="stop-color:#B5FFFD"/>
		</linearGradient>
		<path id="XMLID_34_" fill="url(#XMLID_24_)" d="M51.9,326.7c-2.3,5.6-8.9,26.1,7.6,39.3c0.9,0.7,2.2,0.9,3.2,0.4l24.6-11.2
			c1.8-0.8,2.4-3.1,1.2-4.7c-3.9-5.1-10.7-16.1-7.9-27.3c0.6-2.3-1.4-4.3-3.7-3.8l-22.8,5.5C53.1,325.1,52.3,325.8,51.9,326.7z"/>
		<linearGradient id="XMLID_25_" gradientUnits="userSpaceOnUse" x1="78.3105" y1="154.2988" x2="121.5195" y2="154.2988">
			<stop  offset="0" style="stop-color:#4600A3"/>
			<stop  offset="1" style="stop-color:#6400C4"/>
		</linearGradient>
		<path id="XMLID_61_" fill="url(#XMLID_25_)" d="M99.9,175.9c-11.9,0-21.6-9.7-21.6-21.6c0-11.9,9.7-21.6,21.6-21.6
			s21.6,9.7,21.6,21.6C121.5,166.2,111.8,175.9,99.9,175.9z"/>
		<linearGradient id="XMLID_26_" gradientUnits="userSpaceOnUse" x1="232.4648" y1="154.2988" x2="275.6738" y2="154.2988">
			<stop  offset="0" style="stop-color:#4600A3"/>
			<stop  offset="1" style="stop-color:#6400C4"/>
		</linearGradient>
		<path id="XMLID_33_" fill="url(#XMLID_26_)" d="M254.1,175.9c-11.9,0-21.6-9.7-21.6-21.6c0-11.9,9.7-21.6,21.6-21.6
			c11.9,0,21.6,9.7,21.6,21.6C275.7,166.2,266,175.9,254.1,175.9z"/>
		<circle id="XMLID_32_" fill="#BFCBEB" cx="254.1" cy="154.3" r="16.6"/>
		<linearGradient id="XMLID_37_" gradientUnits="userSpaceOnUse" x1="155.2227" y1="163.0723" x2="198.4307" y2="163.0723">
			<stop  offset="0" style="stop-color:#4600A3"/>
			<stop  offset="1" style="stop-color:#6400C4"/>
		</linearGradient>
		<path id="XMLID_59_" fill="url(#XMLID_37_)" d="M176.8,184.7c-11.9,0-21.6-9.7-21.6-21.6c0-11.9,9.7-21.6,21.6-21.6
			s21.6,9.7,21.6,21.6C198.4,175,188.7,184.7,176.8,184.7z"/>
		<g id="XMLID_29_">
			<g id="XMLID_63_">
				<linearGradient id="XMLID_44_" gradientUnits="userSpaceOnUse" x1="175.7896" y1="348.9492" x2="179.3125" y2="348.9492">
					<stop  offset="0" style="stop-color:#4600A3"/>
					<stop  offset="1" style="stop-color:#6400C4"/>
				</linearGradient>
				<path id="XMLID_227_" fill="url(#XMLID_44_)" d="M177.6,360.1c-1,0-1.8-0.8-1.8-1.8v-18.8c0-1,0.8-1.8,1.8-1.8s1.8,0.8,1.8,1.8
					v18.8C179.3,359.3,178.5,360.1,177.6,360.1z"/>
			</g>
			<g id="XMLID_31_">
				<g id="XMLID_64_">
					<linearGradient id="XMLID_46_" gradientUnits="userSpaceOnUse" x1="193.4063" y1="337.793" x2="196.9287" y2="337.793">
						<stop  offset="0" style="stop-color:#4600A3"/>
						<stop  offset="1" style="stop-color:#6400C4"/>
					</linearGradient>
					<path id="XMLID_226_" fill="url(#XMLID_46_)" d="M195.2,344.8c-1,0-1.8-0.8-1.8-1.8v-10.6c0-1,0.8-1.8,1.8-1.8
						c1,0,1.8,0.8,1.8,1.8v10.6C196.9,344,196.1,344.8,195.2,344.8z"/>
				</g>
				<g id="XMLID_66_">
					<linearGradient id="XMLID_49_" gradientUnits="userSpaceOnUse" x1="193.4063" y1="355.9951" x2="196.9287" y2="355.9951">
						<stop  offset="0" style="stop-color:#4600A3"/>
						<stop  offset="1" style="stop-color:#6400C4"/>
					</linearGradient>
					<path id="XMLID_225_" fill="url(#XMLID_49_)" d="M195.2,360.1c-1,0-1.8-0.8-1.8-1.8v-4.7c0-1,0.8-1.8,1.8-1.8
						c1,0,1.8,0.8,1.8,1.8v4.7C196.9,359.3,196.1,360.1,195.2,360.1z"/>
				</g>
			</g>
			<g id="XMLID_62_">
				<g id="XMLID_30_">
					<linearGradient id="XMLID_50_" gradientUnits="userSpaceOnUse" x1="158.1733" y1="336.6172" x2="161.6968" y2="336.6172">
						<stop  offset="0" style="stop-color:#4600A3"/>
						<stop  offset="1" style="stop-color:#6400C4"/>
					</linearGradient>
					<path id="XMLID_224_" fill="url(#XMLID_50_)" d="M159.9,343.7c-1,0-1.8-0.8-1.8-1.8v-10.6c0-1,0.8-1.8,1.8-1.8s1.8,0.8,1.8,1.8
						v10.6C161.7,342.9,160.9,343.7,159.9,343.7z"/>
				</g>
				<g id="XMLID_67_">
					<linearGradient id="XMLID_51_" gradientUnits="userSpaceOnUse" x1="158.1733" y1="351.8848" x2="161.6968" y2="351.8848">
						<stop  offset="0" style="stop-color:#4600A3"/>
						<stop  offset="1" style="stop-color:#6400C4"/>
					</linearGradient>
					<path id="XMLID_200_" fill="url(#XMLID_51_)" d="M159.9,356.6c-1,0-1.8-0.8-1.8-1.8v-5.9c0-1,0.8-1.8,1.8-1.8s1.8,0.8,1.8,1.8
						v5.9C161.7,355.8,160.9,356.6,159.9,356.6z"/>
				</g>
			</g>
		</g>
		<circle id="XMLID_28_" fill="#C7FFFE" cx="211.2" cy="65.3" r="12.7"/>
		<circle id="XMLID_72_" fill="#C7FFFE" cx="235.8" cy="90" r="6.3"/>
		<g id="XMLID_12_">
			<linearGradient id="XMLID_52_" gradientUnits="userSpaceOnUse" x1="158.0254" y1="110.439" x2="190.0303" y2="110.439">
				<stop  offset="0" style="stop-color:#4600A3"/>
				<stop  offset="1" style="stop-color:#6400C4"/>
			</linearGradient>
			<path id="XMLID_27_" fill="url(#XMLID_52_)" d="M174,91.3c-11.7,0-16,6-16,17.9c0,11.9,11.7,20.3,16,20.3s16-8.4,16-20.3
				C190,97.3,185.7,91.3,174,91.3z"/>
			<g id="XMLID_13_">
				<path id="XMLID_18_" fill="#77FFFC" d="M177,113c0,0-0.2-4.9,3-7.1s7.8-0.6,7.8-0.6s0.1,6.2-3.4,7.7
					C179.9,114.8,177,113,177,113z"/>
				<path id="XMLID_14_" fill="#77FFFC" d="M171.3,113c0,0,0.2-4.9-3-7.1s-7.8-0.6-7.8-0.6s-0.1,6.2,3.4,7.7
					C168.3,114.8,171.3,113,171.3,113z"/>
			</g>
		</g>
		<g id="XMLID_11_">
			<path id="XMLID_74_" fill="#6583CF" d="M176.4,134.7c-55.9,0-83.1-16.8-84.2-17.5c-2.2-1.4-2.8-4.3-1.5-6.5
				c1.4-2.2,4.3-2.8,6.5-1.5c0.2,0.2,26.3,16.1,79.2,16.1c52.9,0,79.7-15.9,79.9-16.1c2.2-1.3,5.1-0.7,6.5,1.6
				c1.4,2.2,0.7,5.1-1.5,6.5C260.1,117.9,232.2,134.7,176.4,134.7z"/>
		</g>
		<path id="XMLID_82_" fill="#D9E0F3" d="M254.1,137.7c-0.8,0-1.6,0.1-2.4,0.2l-13.5,21.2c1.1,3.6,3.3,6.6,6.3,8.7l17.8-27.9
			C259.8,138.5,257,137.7,254.1,137.7z"/>
		<path id="XMLID_81_" fill="#D9E0F3" d="M265.7,142.5l-17.4,27.4c1.8,0.7,3.7,1,5.8,1c0.2,0,0.5,0,0.7,0l14.6-22.9
			C268.5,145.9,267.3,144,265.7,142.5z"/>
		<g id="XMLID_73_">
			<circle id="XMLID_84_" fill="#BFCBEB" cx="176.6" cy="163.1" r="16.6"/>
			<path id="XMLID_80_" fill="#D9E0F3" d="M176.6,146.5c-0.8,0-1.6,0.1-2.4,0.2l-13.5,21.2c1.1,3.6,3.3,6.6,6.3,8.7l17.8-27.9
				C182.3,147.3,179.5,146.5,176.6,146.5z"/>
			<path id="XMLID_75_" fill="#D9E0F3" d="M188.2,151.3l-17.4,27.4c1.8,0.7,3.7,1,5.8,1c0.2,0,0.5,0,0.7,0l14.6-22.9
				C191,154.6,189.8,152.8,188.2,151.3z"/>
		</g>
		<g id="XMLID_89_">
			<circle id="XMLID_93_" fill="#BFCBEB" cx="99.9" cy="154.3" r="16.6"/>
			<path id="XMLID_92_" fill="#D9E0F3" d="M99.9,137.7c-0.8,0-1.6,0.1-2.4,0.2L84,159.1c1.1,3.6,3.3,6.6,6.3,8.7l17.8-27.9
				C105.7,138.5,102.9,137.7,99.9,137.7z"/>
			<path id="XMLID_10_" fill="#D9E0F3" d="M111.6,142.5l-17.4,27.4c1.8,0.7,3.7,1,5.8,1c0.2,0,0.5,0,0.7,0l14.6-23
				C114.4,145.9,113.1,144,111.6,142.5z"/>
		</g>
		<path id="XMLID_9_" fill="#C7FFFE" d="M177,31.2c-14.3,0-27.8,3.7-39.6,10.2c1.1-0.4,38.6-15.2,76.1,5.8
			c37.4,20.9,45,59.9,45.2,61.2C256.3,65.4,220.6,31.2,177,31.2z"/>
		<path id="XMLID_8_" fill="#DAB3FF" d="M353.1,159.3c0-16.7-73.8-40-90.8-45.1l0,0c0,0,74.1,28.1,75.9,42.3
			c1.8,14.3-37.9,25.6-38,25.6c0,0,0,0,0,0l27-6.7C343.1,170.5,353.1,165.1,353.1,159.3z"/>
		<path id="XMLID_7_" fill="#DAB3FF" d="M0,159.3c0-16.7,73.8-40,90.8-45.1l0,0c0,0-74.1,28.1-75.9,42.3
			c-1.8,14.3,37.9,25.6,38,25.6h0l-27-6.7C10,170.5,0,165.1,0,159.3z"/>
	</g>
</g>
</svg>
