<?xml version="1.0" encoding="utf-8"?>
<!-- Generator: Adobe Illustrator 16.0.0, SVG Export Plug-In . SVG Version: 6.00 Build 0)  -->
<!DOCTYPE svg PUBLIC "-//W3C//DTD SVG 1.1//EN" "http://www.w3.org/Graphics/SVG/1.1/DTD/svg11.dtd">
<svg version="1.1" id="object" xmlns="http://www.w3.org/2000/svg" xmlns:xlink="http://www.w3.org/1999/xlink" x="0px" y="0px"
	 width="281.7px" height="365.3px" viewBox="0 0 281.7 365.3" enable-background="new 0 0 281.7 365.3" xml:space="preserve">
<g>
	<linearGradient id="XMLID_2_" gradientUnits="userSpaceOnUse" x1="232.4775" y1="160.0811" x2="264.8198" y2="160.0811">
		<stop  offset="0" style="stop-color:#6400C4"/>
		<stop  offset="1" style="stop-color:#BB73FF"/>
	</linearGradient>
	<polygon id="XMLID_241_" fill="url(#XMLID_2_)" points="239.3,148.2 246.7,152.6 257.7,148.2 253.9,158.1 264.8,166.1 250.4,163.7 
		246.7,171.9 241.3,166.1 232.5,168.5 240,157.1 	"/>
	<linearGradient id="XMLID_3_" gradientUnits="userSpaceOnUse" x1="76.7568" y1="298.6094" x2="86.2651" y2="298.6094">
		<stop  offset="0" style="stop-color:#6400C4"/>
		<stop  offset="1" style="stop-color:#BB73FF"/>
	</linearGradient>
	<polygon id="XMLID_240_" fill="url(#XMLID_3_)" points="76.8,301.1 78.9,298.5 77.8,294.1 81.4,296.1 85.1,292.3 83.3,297.7 
		86.3,299.6 83.7,301.4 84.1,304.9 80.2,301.3 	"/>
	<linearGradient id="XMLID_4_" gradientUnits="userSpaceOnUse" x1="79.5073" y1="40.8018" x2="99.3965" y2="40.8018">
		<stop  offset="0" style="stop-color:#4600A3"/>
		<stop  offset="1" style="stop-color:#6400C4"/>
	</linearGradient>
	<circle id="XMLID_236_" fill="url(#XMLID_4_)" cx="89.5" cy="40.8" r="9.9"/>
	<linearGradient id="XMLID_5_" gradientUnits="userSpaceOnUse" x1="183.647" y1="40.8018" x2="203.5361" y2="40.8018">
		<stop  offset="0" style="stop-color:#4600A3"/>
		<stop  offset="1" style="stop-color:#6400C4"/>
	</linearGradient>
	<circle id="XMLID_235_" fill="url(#XMLID_5_)" cx="193.6" cy="40.8" r="9.9"/>
	<linearGradient id="XMLID_6_" gradientUnits="userSpaceOnUse" x1="49.2236" y1="91.4531" x2="67.6445" y2="91.4531">
		<stop  offset="0" style="stop-color:#46B8FB"/>
		<stop  offset="0.535" style="stop-color:#77FFFC"/>
		<stop  offset="1" style="stop-color:#B5FFFD"/>
	</linearGradient>
	<path id="XMLID_234_" fill="url(#XMLID_6_)" d="M58.1,104.1h9.5V78.8h-9.5c-4.9,0-8.9,4-8.9,8.9v7.5
		C49.2,100.1,53.2,104.1,58.1,104.1z"/>
	<linearGradient id="XMLID_7_" gradientUnits="userSpaceOnUse" x1="213.0972" y1="91.4531" x2="231.5181" y2="91.4531">
		<stop  offset="0" style="stop-color:#46B8FB"/>
		<stop  offset="0.535" style="stop-color:#77FFFC"/>
		<stop  offset="1" style="stop-color:#B5FFFD"/>
	</linearGradient>
	<path id="XMLID_233_" fill="url(#XMLID_7_)" d="M222.6,104.1h-9.5V78.8h9.5c4.9,0,8.9,4,8.9,8.9v7.5
		C231.5,100.1,227.5,104.1,222.6,104.1z"/>
	<g id="XMLID_231_">
		<path id="XMLID_232_" fill="#BFCBEB" d="M53.5,242c-0.5-0.1-13.5-3.8-19.9-15c-3.8-6.7-4.4-14.5-1.9-23.2
			c8-27.9,39.3-32,40.6-32.2l1.3,10.7c-1,0.1-25.6,3.5-31.6,24.5c-1.7,5.8-1.3,10.8,1,15c4.1,7.3,13.2,9.9,13.3,9.9L53.5,242z"/>
	</g>
	<g id="XMLID_143_">
		<g id="XMLID_229_">
			<path id="XMLID_230_" fill="#8B9AC3" d="M72.6,182.4l-1.9-10.6c1-0.2,1.6-0.3,1.6-0.3l1.3,10.7C73.6,182.3,73.2,182.3,72.6,182.4
				z"/>
		</g>
		<g id="XMLID_146_">
			<path id="XMLID_148_" fill="#8B9AC3" d="M42.9,236.9c-0.8-0.6-1.7-1.2-2.4-1.8l6.9-8.3c0.5,0.4,1.1,0.9,1.7,1.3L42.9,236.9z
				 M33.7,227.1c-0.5-0.9-1-1.9-1.4-2.9l9.9-4.2c0.2,0.6,0.5,1.2,0.8,1.7L33.7,227.1z M30.9,213.8v-0.2c0-1-0.3-2-0.2-2.9l10.5,1
				c-0.1,0.7,0.2,1.3,0.2,1.9L30.9,213.8z M42.7,204.7L32.6,201c0.3-0.9,0.7-1.9,1.1-2.7l9.8,4.4C43.2,203.4,42.9,204,42.7,204.7z
				 M47.3,196.5l-8.4-6.7c0.6-0.8,1.3-1.5,1.9-2.3l7.9,7.3C48.2,195.4,47.7,195.9,47.3,196.5z M54.2,190l-6.2-8.8
				c0.8-0.5,1.6-1.1,2.4-1.6l5.7,9.1C55.5,189.1,54.9,189.5,54.2,190z M63,185.3l-4.1-10c0.9-0.4,1.8-0.7,2.6-1l3.6,10.1
				C64.5,184.7,63.7,185,63,185.3z"/>
		</g>
		<g id="XMLID_144_">
			<path id="XMLID_145_" fill="#8B9AC3" d="M53.5,242c-0.1,0-0.7-0.2-1.7-0.5l3.6-10.1c0.5,0.2,0.8,0.3,0.9,0.3L53.5,242z"/>
		</g>
	</g>
	<g id="XMLID_141_">
		<path id="XMLID_142_" fill="#BFCBEB" d="M221.2,169.1l-0.7-1.6c0,0,4.9-2.2,6.9-3.4c0.5-0.3,0.9-1.8,1.3-3.1
			c0.6-2.1,1.3-4.3,2.9-5c0.8-0.3,1.6-0.3,2.6,0.1c1.3,0.6,2.2,1.3,3,1.9c1.7,1.2,2.7,2,6.8,1.2l0.3,1.8c-4.7,0.9-6.1,0-8.2-1.5
			c-0.8-0.6-1.5-1.1-2.7-1.7c-0.7-0.3-1-0.2-1.1-0.1c-0.9,0.4-1.5,2.3-1.9,3.9c-0.5,1.8-1,3.4-2.1,4.1
			C226.2,166.9,221.4,169.1,221.2,169.1z"/>
	</g>
	<g id="XMLID_139_">
		<polygon id="XMLID_140_" fill="#BFCBEB" points="240.9,184.7 232.2,184.7 221.9,178.5 222.9,176.9 232.7,182.7 240.9,182.7 		"/>
	</g>
	<linearGradient id="XMLID_8_" gradientUnits="userSpaceOnUse" x1="58.1563" y1="176.9053" x2="87.7529" y2="176.9053">
		<stop  offset="0" style="stop-color:#4600A3"/>
		<stop  offset="1" style="stop-color:#6400C4"/>
	</linearGradient>
	<circle id="XMLID_138_" fill="url(#XMLID_8_)" cx="73" cy="176.9" r="14.8"/>
	<linearGradient id="XMLID_9_" gradientUnits="userSpaceOnUse" x1="196.3218" y1="176.9053" x2="225.9185" y2="176.9053">
		<stop  offset="0" style="stop-color:#4600A3"/>
		<stop  offset="1" style="stop-color:#6400C4"/>
	</linearGradient>
	<circle id="XMLID_223_" fill="url(#XMLID_9_)" cx="211.1" cy="176.9" r="14.8"/>
	<linearGradient id="XMLID_10_" gradientUnits="userSpaceOnUse" x1="58.4341" y1="91.4531" x2="76.855" y2="91.4531">
		<stop  offset="0" style="stop-color:#4600A3"/>
		<stop  offset="1" style="stop-color:#6400C4"/>
	</linearGradient>
	<path id="XMLID_222_" fill="url(#XMLID_10_)" d="M63.1,112.5h13.7V70.4H63.1c-2.6,0-4.7,2.1-4.7,4.7v32.8
		C58.4,110.4,60.5,112.5,63.1,112.5z"/>
	<linearGradient id="XMLID_11_" gradientUnits="userSpaceOnUse" x1="203.8867" y1="91.4531" x2="222.3076" y2="91.4531">
		<stop  offset="0" style="stop-color:#4600A3"/>
		<stop  offset="1" style="stop-color:#6400C4"/>
	</linearGradient>
	<path id="XMLID_221_" fill="url(#XMLID_11_)" d="M217.6,112.5h-13.7V70.4h13.7c2.6,0,4.7,2.1,4.7,4.7v32.8
		C222.3,110.4,220.2,112.5,217.6,112.5z"/>
	<g id="XMLID_220_">
		<path id="XMLID_137_" fill="#BFCBEB" d="M95.9,288.8c-0.1,0-8.1-3-11.2-3.9c-1-0.3-1.8,0.2-3.1,1c-1.6,1-3.7,2.3-6.7,1.3
			c-5.1-1.8-6.2-8.1-6.3-8.3l1.8-0.3c0,0.1,1,5.5,5.1,7c2.2,0.8,3.6-0.1,5.1-1.1c1.4-0.8,2.8-1.7,4.5-1.2c3.2,0.9,11,3.8,11.3,4
			L95.9,288.8z"/>
	</g>
	<g id="XMLID_219_">
		<path id="XMLID_136_" fill="#BFCBEB" d="M82.7,299.8l0-1.8c8.4-0.2,11.1-8.1,11.2-8.2l1.7,0.6C95.4,290.5,92.3,299.5,82.7,299.8z"
			/>
	</g>
	<linearGradient id="XMLID_12_" gradientUnits="userSpaceOnUse" x1="84.9648" y1="287.2324" x2="114.561" y2="287.2324">
		<stop  offset="0" style="stop-color:#4600A3"/>
		<stop  offset="1" style="stop-color:#6400C4"/>
	</linearGradient>
	<circle id="XMLID_218_" fill="url(#XMLID_12_)" cx="99.8" cy="287.2" r="14.8"/>
	<g id="XMLID_217_">
		<path id="XMLID_135_" fill="#BFCBEB" d="M211.5,338.6c-0.1-0.3-5.4-25.6-32.5-46.9l6.7-8.5c30.4,23.9,36.1,52.1,36.4,53.3
			L211.5,338.6l5.3-1L211.5,338.6z"/>
	</g>
	<g id="XMLID_216_">
		<path id="XMLID_128_" fill="#8B9AC3" d="M211.5,338.6c0,0-0.2-0.8-0.6-2.2l10.3-3c0.5,1.9,0.8,3,0.8,3.1L211.5,338.6l5.3-1
			L211.5,338.6z M208.1,328.6c-0.3-0.7-0.7-1.5-1-2.3l9.7-4.6c0.4,0.9,0.8,1.8,1.2,2.6L208.1,328.6z M203.1,318.8
			c-0.4-0.7-0.9-1.4-1.3-2.2l9.1-5.7c0.5,0.8,1,1.6,1.5,2.4L203.1,318.8z M196.9,309.7c-0.5-0.7-1-1.3-1.6-2l8.4-6.8
			c0.6,0.7,1.2,1.5,1.7,2.2L196.9,309.7z M189.7,301.3c-0.6-0.6-1.2-1.2-1.8-1.8l7.6-7.6c0.7,0.7,1.3,1.3,2,2L189.7,301.3z
			 M181.6,293.8c-0.6-0.5-1.3-1.1-2-1.6l6.7-8.4c0.7,0.6,1.5,1.2,2.2,1.8L181.6,293.8z"/>
	</g>
	<linearGradient id="XMLID_13_" gradientUnits="userSpaceOnUse" x1="164.3584" y1="287.2324" x2="193.9546" y2="287.2324">
		<stop  offset="0" style="stop-color:#4600A3"/>
		<stop  offset="1" style="stop-color:#6400C4"/>
	</linearGradient>
	<circle id="XMLID_215_" fill="url(#XMLID_13_)" cx="179.2" cy="287.2" r="14.8"/>
	<linearGradient id="XMLID_14_" gradientUnits="userSpaceOnUse" x1="111.9033" y1="249.7573" x2="169.1143" y2="249.7573">
		<stop  offset="0" style="stop-color:#4600A3"/>
		<stop  offset="1" style="stop-color:#6400C4"/>
	</linearGradient>
	<path id="XMLID_214_" fill="url(#XMLID_14_)" d="M123.8,258h33.5c6.6,0,11.9-5.3,11.9-11.9v-4.5h-57.2v4.5
		C111.9,252.6,117.2,258,123.8,258z"/>
	<rect id="XMLID_213_" x="129.3" y="258" fill="#2F4B92" width="24.2" height="14.5"/>
	<linearGradient id="XMLID_15_" gradientUnits="userSpaceOnUse" x1="89.9497" y1="304.8584" x2="213.5987" y2="255.3988">
		<stop  offset="0" style="stop-color:#6400C4"/>
		<stop  offset="1" style="stop-color:#BB73FF"/>
	</linearGradient>
	<path id="XMLID_212_" fill="url(#XMLID_15_)" d="M165.9,306.1h-50.7c-4.8,0-8.9-3.2-10.1-7.9l-5-20c-1.7-6.6,3.3-13,10.1-13h60.8
		c6.8,0,11.8,6.4,10.1,13l-5,20C174.8,302.8,170.6,306.1,165.9,306.1z"/>
	<rect id="XMLID_211_" x="129.3" y="137.4" fill="#2F4B92" width="24.2" height="14.5"/>
	<linearGradient id="XMLID_16_" gradientUnits="userSpaceOnUse" x1="111.9033" y1="160.1274" x2="169.1143" y2="160.1274">
		<stop  offset="0" style="stop-color:#4600A3"/>
		<stop  offset="1" style="stop-color:#6400C4"/>
	</linearGradient>
	<path id="XMLID_127_" fill="url(#XMLID_16_)" d="M123.8,151.9h33.5c6.6,0,11.9,5.3,11.9,11.9v4.5h-57.2v-4.5
		C111.9,157.2,117.2,151.9,123.8,151.9z"/>
	<linearGradient id="XMLID_17_" gradientUnits="userSpaceOnUse" x1="62.5024" y1="259.3169" x2="219.9939" y2="146.0794">
		<stop  offset="0" style="stop-color:#6400C4"/>
		<stop  offset="1" style="stop-color:#BB73FF"/>
	</linearGradient>
	<path id="XMLID_209_" fill="url(#XMLID_17_)" d="M186.8,249.5H94.2c-10.7,0-19.4-8.7-19.4-19.4v-53.7c0-10.7,8.7-19.4,19.4-19.4
		h92.6c10.7,0,19.4,8.7,19.4,19.4v53.7C206.2,240.8,197.5,249.5,186.8,249.5z"/>
	<linearGradient id="XMLID_18_" gradientUnits="userSpaceOnUse" x1="99.3481" y1="134.6211" x2="181.6689" y2="134.6211">
		<stop  offset="0" style="stop-color:#4600A3"/>
		<stop  offset="1" style="stop-color:#6400C4"/>
	</linearGradient>
	<path id="XMLID_208_" fill="url(#XMLID_18_)" d="M167.4,142.8h-53.9c-7.9,0-14.2-6.4-14.2-14.2v-2.2h82.3v2.2
		C181.7,136.5,175.3,142.8,167.4,142.8z"/>
	<linearGradient id="XMLID_19_" gradientUnits="userSpaceOnUse" x1="63.6475" y1="158.397" x2="196.4086" y2="36.0485">
		<stop  offset="0" style="stop-color:#6400C4"/>
		<stop  offset="1" style="stop-color:#BB73FF"/>
	</linearGradient>
	<path id="XMLID_207_" fill="url(#XMLID_19_)" d="M186.8,133.8H94.2c-10.7,0-19.4-8.7-19.4-19.4V60.7c0-10.7,8.7-19.4,19.4-19.4
		h92.6c10.7,0,19.4,8.7,19.4,19.4v53.7C206.2,125.1,197.5,133.8,186.8,133.8z"/>
	<g id="XMLID_182_">
		<defs>
			<path id="XMLID_183_" d="M179.3,233.8h-77.5c-2.6,0-4.7-2.1-4.7-4.7v-44.8c0-2.6,2.1-4.7,4.7-4.7h77.5c2.6,0,4.7,2.1,4.7,4.7
				v44.8C183.9,231.7,181.8,233.8,179.3,233.8z"/>
		</defs>
		<linearGradient id="XMLID_20_" gradientUnits="userSpaceOnUse" x1="97.0815" y1="206.7383" x2="183.936" y2="206.7383">
			<stop  offset="0" style="stop-color:#4600A3"/>
			<stop  offset="1" style="stop-color:#6400C4"/>
		</linearGradient>
		<use xlink:href="#XMLID_183_"  overflow="visible" fill="url(#XMLID_20_)"/>
		<clipPath id="XMLID_21_">
			<use xlink:href="#XMLID_183_"  overflow="visible"/>
		</clipPath>
		<g id="XMLID_184_" clip-path="url(#XMLID_21_)">
			<g id="XMLID_205_">
				<linearGradient id="XMLID_22_" gradientUnits="userSpaceOnUse" x1="154.0132" y1="229.8872" x2="186.5552" y2="229.8872">
					<stop  offset="0.4264" style="stop-color:#4C47CC"/>
					<stop  offset="0.7654" style="stop-color:#4E61CD"/>
					<stop  offset="1" style="stop-color:#617BFF"/>
				</linearGradient>
				<path id="XMLID_126_" fill="url(#XMLID_22_)" d="M156.7,236.9l-2.7-0.1l0.2-8.4c0.1-3.1,2.6-5.6,5.7-5.6h26.7v2.7h-26.7
					c-1.6,0-3,1.3-3,2.9L156.7,236.9z"/>
			</g>
			<g id="XMLID_204_">
				<linearGradient id="XMLID_23_" gradientUnits="userSpaceOnUse" x1="158.6875" y1="234.5625" x2="191.23" y2="234.5625">
					<stop  offset="0.4264" style="stop-color:#4C47CC"/>
					<stop  offset="0.7654" style="stop-color:#4E61CD"/>
					<stop  offset="1" style="stop-color:#617BFF"/>
				</linearGradient>
				<path id="XMLID_125_" fill="url(#XMLID_23_)" d="M161.4,241.6l-2.7-0.1l0.2-10.6c0-1.8,1.6-3.3,3.4-3.3h28.9v2.7h-28.9
					c-0.4,0-0.7,0.3-0.7,0.7L161.4,241.6z"/>
			</g>
			<linearGradient id="XMLID_24_" gradientUnits="userSpaceOnUse" x1="136.8628" y1="197.9277" x2="186.1846" y2="197.9277">
				<stop  offset="0.4264" style="stop-color:#4C47CC"/>
				<stop  offset="0.7654" style="stop-color:#4E61CD"/>
				<stop  offset="1" style="stop-color:#617BFF"/>
			</linearGradient>
			<path id="XMLID_203_" fill="url(#XMLID_24_)" d="M171.4,219.2h-19.8c-8.2,0-14.8-6.6-14.8-14.8v-27.8h49.3v27.8
				C186.2,212.6,179.6,219.2,171.4,219.2z"/>
			<linearGradient id="XMLID_25_" gradientUnits="userSpaceOnUse" x1="143.9072" y1="201.7114" x2="174.5864" y2="201.7114">
				<stop  offset="0" style="stop-color:#46B8FB"/>
				<stop  offset="0.535" style="stop-color:#77FFFC"/>
				<stop  offset="1" style="stop-color:#B5FFFD"/>
			</linearGradient>
			<path id="XMLID_199_" fill="url(#XMLID_25_)" d="M172.1,201.2c0-1-0.1-1.9-0.3-2.9l2.8-2.5l-3-5.2l-3.6,1.2
				c-1.4-1.3-3.1-2.1-5-2.7l-0.8-3.4h-6l-0.8,3.4c-1.9,0.6-3.6,1.5-5,2.8l-3.6-1.2l-3,5.2l2.8,2.5c-0.2,0.9-0.3,1.9-0.3,2.9
				s0.1,1.9,0.3,2.9l-2.8,2.5l3,5.2l3.6-1.2c1.4,1.3,3.1,2.6,5,3.1l0.8,3.9h6l0.8-3.9c1.9-0.6,3.6-1.7,5-3l3.6,1.1l3-5.3l-2.8-2.5
				C172,203.2,172.1,202.2,172.1,201.2z M159.2,208.5c-4,0-7.3-3.3-7.3-7.3c0-4,3.3-7.3,7.3-7.3c4,0,7.3,3.3,7.3,7.3
				C166.6,205.3,163.3,208.5,159.2,208.5z"/>
			<linearGradient id="XMLID_26_" gradientUnits="userSpaceOnUse" x1="134.9214" y1="222.4492" x2="156.9663" y2="222.4492">
				<stop  offset="0" style="stop-color:#6400C4"/>
				<stop  offset="1" style="stop-color:#BB73FF"/>
			</linearGradient>
			<path id="XMLID_195_" fill="url(#XMLID_26_)" d="M153.2,227.4c0.4-0.6,0.7-1.1,0.9-1.7l2.5-0.3l0.3-4.1l-2.5-0.7
				c-0.3-1.3-0.9-2.4-1.7-3.5l0.9-2.3l-3.4-2.3l-1.8,1.7c-1.3-0.4-2.6-0.5-3.9-0.3l-1.5-2.1l-3.7,1.8l0.6,2.5
				c-0.5,0.4-0.9,0.9-1.3,1.5c-0.4,0.6-0.7,1.1-0.9,1.7l-2.5,0.3l-0.3,4.1l2.5,0.7c0.3,1.3,0.8,2.5,1.7,3.6l-1,2.4l3.4,2.3l1.9-1.8
				c1.3,0.4,2.6,0.5,3.9,0.3l1.6,2l3.7-1.8l-0.6-2.5C152.4,228.5,152.8,228,153.2,227.4z M143.1,226.5c-2.3-1.6-2.8-4.7-1.3-6.9
				s4.7-2.8,6.9-1.3c2.3,1.6,2.8,4.7,1.3,6.9C148.5,227.5,145.4,228.1,143.1,226.5z"/>
			<linearGradient id="XMLID_27_" gradientUnits="userSpaceOnUse" x1="111.9033" y1="186.291" x2="140.957" y2="186.291">
				<stop  offset="0" style="stop-color:#6400C4"/>
				<stop  offset="1" style="stop-color:#BB73FF"/>
			</linearGradient>
			<path id="XMLID_124_" fill="url(#XMLID_27_)" d="M135.1,196.7h-17.4c-3.2,0-5.8-2.6-5.8-5.8v-15H141v15
				C141,194.1,138.3,196.7,135.1,196.7z"/>
			<linearGradient id="XMLID_28_" gradientUnits="userSpaceOnUse" x1="116.5991" y1="191.2432" x2="120.3296" y2="191.2432">
				<stop  offset="0" style="stop-color:#46B8FB"/>
				<stop  offset="0.535" style="stop-color:#77FFFC"/>
				<stop  offset="1" style="stop-color:#B5FFFD"/>
			</linearGradient>
			<circle id="XMLID_193_" fill="url(#XMLID_28_)" cx="118.5" cy="191.2" r="1.9"/>
			<g id="XMLID_192_">
				<path id="XMLID_123_" fill="#BFCBEB" d="M112.9,209h-1.8v-3.1c0-2.5,2-4.5,4.5-4.5c1.5,0,2.7-1.2,2.7-2.7v-2.1h1.8v2.1
					c0,2.5-2,4.5-4.5,4.5c-1.5,0-2.7,1.2-2.7,2.7V209z"/>
			</g>
			<g id="XMLID_191_">
				<rect id="XMLID_122_" x="120.9" y="196.7" fill="#BFCBEB" width="2" height="13"/>
			</g>
			<circle id="XMLID_121_" fill="#BFCBEB" cx="125.7" cy="191.2" r="1.9"/>
			<linearGradient id="XMLID_29_" gradientUnits="userSpaceOnUse" x1="103.397" y1="224.8252" x2="132.7153" y2="224.8252">
				<stop  offset="0" style="stop-color:#46B8FB"/>
				<stop  offset="0.535" style="stop-color:#77FFFC"/>
				<stop  offset="1" style="stop-color:#B5FFFD"/>
			</linearGradient>
			<path id="XMLID_189_" fill="url(#XMLID_29_)" d="M127.1,241.1h-18c-3.1,0-5.7-2.5-5.7-5.7v-21.3c0-3.1,2.5-5.7,5.7-5.7h18
				c3.1,0,5.7,2.5,5.7,5.7v21.3C132.7,238.6,130.2,241.1,127.1,241.1z"/>
			<linearGradient id="XMLID_30_" gradientUnits="userSpaceOnUse" x1="103.397" y1="217.144" x2="118.0562" y2="217.144">
				<stop  offset="0.4264" style="stop-color:#4C47CC"/>
				<stop  offset="0.7654" style="stop-color:#4E61CD"/>
				<stop  offset="1" style="stop-color:#617BFF"/>
			</linearGradient>
			<path id="XMLID_120_" fill="url(#XMLID_30_)" d="M116,219.2h-12.6v-4.1H116c1.1,0,2.1,0.9,2.1,2.1l0,0
				C118.1,218.3,117.1,219.2,116,219.2z"/>
			<linearGradient id="XMLID_31_" gradientUnits="userSpaceOnUse" x1="103.397" y1="226.666" x2="118.0562" y2="226.666">
				<stop  offset="0.4264" style="stop-color:#4C47CC"/>
				<stop  offset="0.7654" style="stop-color:#4E61CD"/>
				<stop  offset="1" style="stop-color:#617BFF"/>
			</linearGradient>
			<path id="XMLID_119_" fill="url(#XMLID_31_)" d="M116,228.7h-12.6v-4.1H116c1.1,0,2.1,0.9,2.1,2.1l0,0
				C118.1,227.8,117.1,228.7,116,228.7z"/>
			<rect id="XMLID_118_" x="95.1" y="175.9" opacity="0.2" width="98" height="7.6"/>
		</g>
	</g>
	<g id="XMLID_117_">
		<linearGradient id="XMLID_32_" gradientUnits="userSpaceOnUse" x1="96.3247" y1="89.2632" x2="125.9209" y2="89.2632">
			<stop  offset="0" style="stop-color:#4600A3"/>
			<stop  offset="1" style="stop-color:#6400C4"/>
		</linearGradient>
		<circle id="XMLID_181_" fill="url(#XMLID_32_)" cx="111.1" cy="89.3" r="14.8"/>
		<linearGradient id="XMLID_33_" gradientUnits="userSpaceOnUse" x1="101.3911" y1="89.2632" x2="120.8545" y2="89.2632">
			<stop  offset="0" style="stop-color:#46B8FB"/>
			<stop  offset="0.535" style="stop-color:#77FFFC"/>
			<stop  offset="1" style="stop-color:#B5FFFD"/>
		</linearGradient>
		<circle id="XMLID_180_" fill="url(#XMLID_33_)" cx="111.1" cy="89.3" r="9.7"/>
	</g>
	<linearGradient id="XMLID_34_" gradientUnits="userSpaceOnUse" x1="124.8716" y1="117.8564" x2="157.0874" y2="117.8564">
		<stop  offset="0" style="stop-color:#4600A3"/>
		<stop  offset="1" style="stop-color:#6400C4"/>
	</linearGradient>
	<rect id="XMLID_178_" x="124.9" y="112.5" fill="url(#XMLID_34_)" width="32.2" height="10.6"/>
	<linearGradient id="XMLID_35_" gradientUnits="userSpaceOnUse" x1="158.1904" y1="89.626" x2="181.3345" y2="89.626">
		<stop  offset="0" style="stop-color:#4600A3"/>
		<stop  offset="1" style="stop-color:#6400C4"/>
	</linearGradient>
	<path id="XMLID_177_" fill="url(#XMLID_35_)" d="M174.8,100.1l-15.5-15.5c-1.5-1.5-1.5-3.9,0-5.4l0,0c1.5-1.5,3.9-1.5,5.4,0
		l15.5,15.5c1.5,1.5,1.5,3.9,0,5.4l0,0C178.7,101.6,176.3,101.6,174.8,100.1z"/>
	<linearGradient id="XMLID_36_" gradientUnits="userSpaceOnUse" x1="158.1904" y1="89.626" x2="181.3345" y2="89.626">
		<stop  offset="0" style="stop-color:#4600A3"/>
		<stop  offset="1" style="stop-color:#6400C4"/>
	</linearGradient>
	<path id="XMLID_176_" fill="url(#XMLID_36_)" d="M164.7,100.1l15.5-15.5c1.5-1.5,1.5-3.9,0-5.4l0,0c-1.5-1.5-3.9-1.5-5.4,0
		l-15.5,15.5c-1.5,1.5-1.5,3.9,0,5.4l0,0C160.8,101.6,163.2,101.6,164.7,100.1z"/>
	<g id="XMLID_175_">
		<path id="XMLID_116_" fill="#1E3B82" d="M88.2,35.1l-2.6-0.7c0.1-0.3,1.8-6.7-2.9-8.1c-2.1-0.6-4.3-0.5-6.2-0.4
			c-3.3,0.1-7.1,0.3-8.3-3.9c-1-3.5,2.4-5.4,5.1-7c3.4-2,4.5-3,3.9-4.5c-1.1-2.5-2.8-3-4.7-3.5c-1.7-0.5-3.5-1-4.4-3.1l2.5-1
			c0.3,0.8,1,1,2.6,1.5c2,0.6,4.9,1.3,6.4,5c1.7,4-2.2,6.2-5,7.9c-2.7,1.5-4.2,2.6-3.9,3.9c0.6,2,1.9,2.1,5.6,1.9
			c2.1-0.1,4.6-0.2,7.1,0.5C89.2,25.4,89.1,31.9,88.2,35.1z"/>
	</g>
	<linearGradient id="XMLID_37_" gradientUnits="userSpaceOnUse" x1="181.3496" y1="192.896" x2="187.3159" y2="192.896">
		<stop  offset="0" style="stop-color:#46B8FB"/>
		<stop  offset="0.535" style="stop-color:#77FFFC"/>
		<stop  offset="1" style="stop-color:#B5FFFD"/>
	</linearGradient>
	<path id="XMLID_115_" fill="url(#XMLID_37_)" d="M184.3,199.7L184.3,199.7c-1.6,0-3-1.3-3-3V189c0-1.6,1.3-3,3-3l0,0
		c1.6,0,3,1.3,3,3v7.7C187.3,198.4,186,199.7,184.3,199.7z"/>
	<linearGradient id="XMLID_38_" gradientUnits="userSpaceOnUse" x1="181.3496" y1="221.9053" x2="187.3159" y2="221.9053">
		<stop  offset="0" style="stop-color:#46B8FB"/>
		<stop  offset="0.535" style="stop-color:#77FFFC"/>
		<stop  offset="1" style="stop-color:#B5FFFD"/>
	</linearGradient>
	<path id="XMLID_173_" fill="url(#XMLID_38_)" d="M184.3,228.7L184.3,228.7c-1.6,0-3-1.3-3-3v-7.7c0-1.6,1.3-3,3-3l0,0
		c1.6,0,3,1.3,3,3v7.7C187.3,227.4,186,228.7,184.3,228.7z"/>
	<g id="XMLID_166_">
		<linearGradient id="XMLID_39_" gradientUnits="userSpaceOnUse" x1="42.6216" y1="245.7397" x2="73.0884" y2="245.7397">
			<stop  offset="0" style="stop-color:#46B8FB"/>
			<stop  offset="0.535" style="stop-color:#77FFFC"/>
			<stop  offset="1" style="stop-color:#B5FFFD"/>
		</linearGradient>
		<polygon id="XMLID_172_" fill="url(#XMLID_39_)" points="52.4,271.5 42.6,267.2 63.3,220 73.1,224.3 		"/>
		<linearGradient id="XMLID_40_" gradientUnits="userSpaceOnUse" x1="61.6787" y1="206.3164" x2="87.0337" y2="206.3164">
			<stop  offset="0" style="stop-color:#46B8FB"/>
			<stop  offset="0.535" style="stop-color:#77FFFC"/>
			<stop  offset="1" style="stop-color:#B5FFFD"/>
		</linearGradient>
		<path id="XMLID_171_" fill="url(#XMLID_40_)" d="M70,195.7c0,0-1.4-0.7-2.7,1c-1.3,1.7-8.8,8.3-4.2,14.8c4.6,6.5,16.3,7.4,21,2.7
			c4.1-4.1,3.3-8.4,0.9-13.8c-1.2-2.7-1.8-2.7-3.1-2.9l-0.8,6.3c-0.4,3-3.1,5.1-6,4.8l-1-0.1c-3-0.3-5.2-3.1-4.8-6.1L70,195.7z"/>
		<linearGradient id="XMLID_41_" gradientUnits="userSpaceOnUse" x1="62.5654" y1="217.8496" x2="82.6284" y2="217.8496">
			<stop  offset="0" style="stop-color:#46B8FB"/>
			<stop  offset="0.535" style="stop-color:#77FFFC"/>
			<stop  offset="1" style="stop-color:#B5FFFD"/>
		</linearGradient>
		<path id="XMLID_170_" fill="url(#XMLID_41_)" d="M62.6,210.5c0,0,2.8,4.7,0.3,10.4l9.8,4.3c0,0,2.9-7,9.9-9.8L62.6,210.5z"/>
		<linearGradient id="XMLID_42_" gradientUnits="userSpaceOnUse" x1="36.1611" y1="275.5566" x2="53.5479" y2="275.5566">
			<stop  offset="0" style="stop-color:#46B8FB"/>
			<stop  offset="0.535" style="stop-color:#77FFFC"/>
			<stop  offset="1" style="stop-color:#B5FFFD"/>
		</linearGradient>
		<path id="XMLID_167_" fill="url(#XMLID_42_)" d="M48.3,267.6c-4.4-1.9-9.5,0.1-11.4,4.5c-1.9,4.4,0.1,9.5,4.5,11.4
			c4.4,1.9,9.5-0.1,11.4-4.5C54.7,274.6,52.7,269.5,48.3,267.6z M43.1,279.6c-2.2-1-3.3-3.6-2.3-5.8c1-2.2,3.6-3.3,5.8-2.3
			s3.3,3.6,2.3,5.8C47.9,279.6,45.3,280.6,43.1,279.6z"/>
	</g>
	<g id="XMLID_165_">
		<path id="XMLID_114_" fill="#BFCBEB" d="M45.6,335.2l-6-9c1-0.7,25.1-16.4,63.5-11.8l-1.3,10.7C67.6,321,45.8,335,45.6,335.2z"/>
	</g>
	<g id="XMLID_164_">
		<path id="XMLID_103_" fill="#8B9AC3" d="M45.6,335.2l-6-9c0.1-0.1,1-0.7,2.7-1.6l5.2,9.4C46.3,334.7,45.6,335.2,45.6,335.2z
			 M55.1,330.6l-3.9-10c0.8-0.3,1.7-0.7,2.7-1l3.6,10.1C56.6,330,55.8,330.3,55.1,330.6z M65.5,327.2l-2.6-10.4
			c0.9-0.2,1.8-0.4,2.8-0.7l2.3,10.5C67.1,326.8,66.3,327,65.5,327.2z M76.3,325.2l-1.4-10.7c0.9-0.1,1.9-0.2,2.8-0.3l1.1,10.7
			C78,325,77.2,325.1,76.3,325.2z M101,325.1c-0.9-0.1-1.7-0.2-2.6-0.3l1-10.7c0.9,0.1,1.9,0.2,2.8,0.3L101,325.1z M87.4,324.4
			l-0.2-10.8c0.6,0,1.3,0,1.9,0l0.9,0l-0.1,10.8l-0.8,0C88.5,324.4,87.9,324.4,87.4,324.4z"/>
	</g>
	<linearGradient id="XMLID_43_" gradientUnits="userSpaceOnUse" x1="31.8823" y1="332.2451" x2="52.4385" y2="332.2451">
		<stop  offset="0" style="stop-color:#4600A3"/>
		<stop  offset="1" style="stop-color:#6400C4"/>
	</linearGradient>
	<circle id="XMLID_163_" fill="url(#XMLID_43_)" cx="42.2" cy="332.2" r="10.3"/>
	<linearGradient id="XMLID_44_" gradientUnits="userSpaceOnUse" x1="205.6968" y1="338.9346" x2="226.2534" y2="338.9346">
		<stop  offset="0" style="stop-color:#4600A3"/>
		<stop  offset="1" style="stop-color:#6400C4"/>
	</linearGradient>
	<circle id="XMLID_162_" fill="url(#XMLID_44_)" cx="216" cy="338.9" r="10.3"/>
	<path id="XMLID_159_" fill="#BFCBEB" d="M142.3,322.7H132l-5.2,8.5l5.2,8.5h10.4l5.2-8.5L142.3,322.7z M137.1,333.8
		c-2,0-3.6-1.6-3.6-3.6c0-2,1.6-3.6,3.6-3.6c2,0,3.6,1.6,3.6,3.6C140.7,332.2,139.1,333.8,137.1,333.8z"/>
	<path id="XMLID_158_" fill="#2F4B92" d="M230.9,298.6h-12.4c-1,0-1.7-0.8-1.7-1.7v-4.6c0-1,0.8-1.7,1.7-1.7h12.4
		c1,0,1.7,0.8,1.7,1.7v4.6C232.7,297.8,231.9,298.6,230.9,298.6z"/>
	<linearGradient id="XMLID_45_" gradientUnits="userSpaceOnUse" x1="203.8696" y1="341.8857" x2="281.7212" y2="341.8857">
		<stop  offset="0" style="stop-color:#6400C4"/>
		<stop  offset="1" style="stop-color:#BB73FF"/>
	</linearGradient>
	<path id="XMLID_157_" fill="url(#XMLID_45_)" d="M203.9,345.2l9.5,20.1l68.4-32.2l-2.3-4.9c-3.9-8.4-13.9-11.9-22.3-8L203.9,345.2z
		"/>
	<linearGradient id="XMLID_46_" gradientUnits="userSpaceOnUse" x1="0" y1="315.666" x2="46.252" y2="315.666">
		<stop  offset="0" style="stop-color:#6400C4"/>
		<stop  offset="1" style="stop-color:#BB73FF"/>
	</linearGradient>
	<path id="XMLID_153_" fill="url(#XMLID_46_)" d="M46.3,345.2l-20.9,7.4L0,281.5l5.1-1.8c8.7-3.1,18.3,1.4,21.4,10.1L46.3,345.2z"/>
	<linearGradient id="XMLID_47_" gradientUnits="userSpaceOnUse" x1="46.252" y1="239.8496" x2="74.8081" y2="239.8496">
		<stop  offset="0" style="stop-color:#6400C4"/>
		<stop  offset="1" style="stop-color:#BB73FF"/>
	</linearGradient>
	<circle id="XMLID_152_" fill="url(#XMLID_47_)" cx="60.5" cy="239.8" r="14.3"/>
	<linearGradient id="XMLID_48_" gradientUnits="userSpaceOnUse" x1="65.1475" y1="3.6826" x2="72.5127" y2="3.6826">
		<stop  offset="0" style="stop-color:#46B8FB"/>
		<stop  offset="0.535" style="stop-color:#77FFFC"/>
		<stop  offset="1" style="stop-color:#B5FFFD"/>
	</linearGradient>
	<circle id="XMLID_151_" fill="url(#XMLID_48_)" cx="68.8" cy="3.7" r="3.7"/>
	<linearGradient id="XMLID_49_" gradientUnits="userSpaceOnUse" x1="248.7881" y1="310.2393" x2="256.9658" y2="310.2393">
		<stop  offset="0" style="stop-color:#6400C4"/>
		<stop  offset="1" style="stop-color:#BB73FF"/>
	</linearGradient>
	<circle id="XMLID_90_" fill="url(#XMLID_49_)" cx="252.9" cy="310.2" r="4.1"/>
</g>
</svg>
